<svg xmlns="http://www.w3.org/2000/svg" xmlns:xlink="http://www.w3.org/1999/xlink">
    <defs>
        <!-- https://api.iconify.design/lucide:save.svg -->
        <symbol viewBox="0 0 24 24" id="save">
            <g fill="none" stroke="currentColor" stroke-linecap="round" stroke-linejoin="round" stroke-width="2">
                <path
                    d="M15.2 3a2 2 0 0 1 1.4.6l3.8 3.8a2 2 0 0 1 .6 1.4V19a2 2 0 0 1-2 2H5a2 2 0 0 1-2-2V5a2 2 0 0 1 2-2z" />
                <path d="M17 21v-7a1 1 0 0 0-1-1H8a1 1 0 0 0-1 1v7M7 3v4a1 1 0 0 0 1 1h7" />
            </g>
        </symbol>
        <symbol viewBox="0 0 24 24" id="camera">
            <g fill="none" stroke="currentColor" stroke-linecap="round" stroke-linejoin="round" stroke-width="2">
                <path d="M14.5 4h-5L7 7H4a2 2 0 0 0-2 2v9a2 2 0 0 0 2 2h16a2 2 0 0 0 2-2V9a2 2 0 0 0-2-2h-3z" />
                <circle cx="12" cy="13" r="3" />
            </g>
        </symbol>
        <!-- https://api.iconify.design/lucide:refresh-cw.svg -->
        <symbol viewBox="0 0 24 24" id="update">
            <g fill="none" stroke="currentColor" stroke-linecap="round" stroke-linejoin="round" stroke-width="2">
                <path d="M3 12a9 9 0 0 1 9-9a9.75 9.75 0 0 1 6.74 2.74L21 8" />
                <path d="M21 3v5h-5m5 4a9 9 0 0 1-9 9a9.75 9.75 0 0 1-6.74-2.74L3 16" />
                <path d="M8 16H3v5" />
            </g>
        </symbol>

    </defs>
</svg>
